<mxfile host="app.diagrams.net" agent="Mozilla/5.0 (Macintosh; Intel Mac OS X 10_15_7) AppleWebKit/605.1.15 (KHTML, like Gecko) Version/18.5 Safari/605.1.15" version="27.1.6">
  <diagram name="第 1 页" id="8AEqgXQ7vQlAx5bRjQgV">
    <mxGraphModel dx="872" dy="751" grid="1" gridSize="10" guides="1" tooltips="1" connect="1" arrows="1" fold="1" page="1" pageScale="1" pageWidth="1169" pageHeight="827" math="0" shadow="0">
      <root>
        <mxCell id="0" />
        <mxCell id="1" parent="0" />
        <mxCell id="SL-odhwJrNfDDm6GMrAu-103" value="" style="rounded=1;whiteSpace=wrap;html=1;arcSize=6;fillColor=none;" parent="1" vertex="1">
          <mxGeometry x="130" y="290" width="320" height="240" as="geometry" />
        </mxCell>
        <mxCell id="SL-odhwJrNfDDm6GMrAu-104" value="" style="rounded=0;whiteSpace=wrap;html=1;fillColor=none;" parent="1" vertex="1">
          <mxGeometry x="510" y="290" width="290" height="240" as="geometry" />
        </mxCell>
        <mxCell id="SL-odhwJrNfDDm6GMrAu-5" value="&lt;span style=&quot;font-size: 15px;&quot;&gt;NFV平台&lt;/span&gt;" style="text;html=1;align=center;verticalAlign=middle;resizable=0;points=[];autosize=1;strokeColor=none;fillColor=none;" parent="1" vertex="1">
          <mxGeometry x="136" y="290" width="80" height="30" as="geometry" />
        </mxCell>
        <mxCell id="SL-odhwJrNfDDm6GMrAu-32" value="" style="group" parent="1" vertex="1" connectable="0">
          <mxGeometry x="170" y="340" width="38" height="100" as="geometry" />
        </mxCell>
        <mxCell id="SL-odhwJrNfDDm6GMrAu-21" value="" style="rounded=0;whiteSpace=wrap;html=1;" parent="SL-odhwJrNfDDm6GMrAu-32" vertex="1">
          <mxGeometry width="38" height="20" as="geometry" />
        </mxCell>
        <mxCell id="SL-odhwJrNfDDm6GMrAu-22" value="" style="rounded=0;whiteSpace=wrap;html=1;" parent="SL-odhwJrNfDDm6GMrAu-32" vertex="1">
          <mxGeometry y="20" width="38" height="20" as="geometry" />
        </mxCell>
        <mxCell id="SL-odhwJrNfDDm6GMrAu-23" value="..." style="rounded=0;whiteSpace=wrap;html=1;" parent="SL-odhwJrNfDDm6GMrAu-32" vertex="1">
          <mxGeometry y="40" width="38" height="20" as="geometry" />
        </mxCell>
        <mxCell id="SL-odhwJrNfDDm6GMrAu-24" value="" style="rounded=0;whiteSpace=wrap;html=1;" parent="SL-odhwJrNfDDm6GMrAu-32" vertex="1">
          <mxGeometry y="60" width="38" height="20" as="geometry" />
        </mxCell>
        <mxCell id="SL-odhwJrNfDDm6GMrAu-26" value="" style="rounded=0;whiteSpace=wrap;html=1;" parent="SL-odhwJrNfDDm6GMrAu-32" vertex="1">
          <mxGeometry y="80" width="38" height="20" as="geometry" />
        </mxCell>
        <mxCell id="SL-odhwJrNfDDm6GMrAu-33" value="" style="group" parent="1" vertex="1" connectable="0">
          <mxGeometry x="240" y="340" width="38" height="100" as="geometry" />
        </mxCell>
        <mxCell id="SL-odhwJrNfDDm6GMrAu-34" value="" style="rounded=0;whiteSpace=wrap;html=1;" parent="SL-odhwJrNfDDm6GMrAu-33" vertex="1">
          <mxGeometry width="38" height="20" as="geometry" />
        </mxCell>
        <mxCell id="SL-odhwJrNfDDm6GMrAu-35" value="" style="rounded=0;whiteSpace=wrap;html=1;" parent="SL-odhwJrNfDDm6GMrAu-33" vertex="1">
          <mxGeometry y="20" width="38" height="20" as="geometry" />
        </mxCell>
        <mxCell id="SL-odhwJrNfDDm6GMrAu-36" value="..." style="rounded=0;whiteSpace=wrap;html=1;" parent="SL-odhwJrNfDDm6GMrAu-33" vertex="1">
          <mxGeometry y="40" width="38" height="20" as="geometry" />
        </mxCell>
        <mxCell id="SL-odhwJrNfDDm6GMrAu-37" value="" style="rounded=0;whiteSpace=wrap;html=1;" parent="SL-odhwJrNfDDm6GMrAu-33" vertex="1">
          <mxGeometry y="60" width="38" height="20" as="geometry" />
        </mxCell>
        <mxCell id="SL-odhwJrNfDDm6GMrAu-38" value="" style="rounded=0;whiteSpace=wrap;html=1;" parent="SL-odhwJrNfDDm6GMrAu-33" vertex="1">
          <mxGeometry y="80" width="38" height="20" as="geometry" />
        </mxCell>
        <mxCell id="SL-odhwJrNfDDm6GMrAu-46" value="&lt;div&gt;&lt;span style=&quot;font-weight: normal;&quot;&gt;&lt;font style=&quot;font-size: 13px;&quot;&gt;数据包缓存&lt;/font&gt;&lt;/span&gt;&lt;/div&gt;&lt;font style=&quot;font-size: 13px;&quot;&gt;......&lt;/font&gt;" style="text;html=1;align=center;verticalAlign=middle;whiteSpace=wrap;rounded=0;fontStyle=1;fontSize=17;" parent="1" vertex="1">
          <mxGeometry x="283" y="375" width="90" height="30" as="geometry" />
        </mxCell>
        <mxCell id="SL-odhwJrNfDDm6GMrAu-52" value="" style="curved=1;endArrow=classic;html=1;rounded=0;exitX=0.5;exitY=1;exitDx=0;exitDy=0;entryX=0;entryY=0.5;entryDx=0;entryDy=0;endFill=1;startFill=1;startArrow=classic;" parent="1" source="SL-odhwJrNfDDm6GMrAu-26" target="SL-odhwJrNfDDm6GMrAu-61" edge="1">
          <mxGeometry width="50" height="50" relative="1" as="geometry">
            <mxPoint x="170" y="440" as="sourcePoint" />
            <mxPoint x="154" y="535" as="targetPoint" />
            <Array as="points">
              <mxPoint x="100" y="580" />
            </Array>
          </mxGeometry>
        </mxCell>
        <mxCell id="SL-odhwJrNfDDm6GMrAu-55" value="" style="curved=1;endArrow=classic;html=1;rounded=0;exitX=0.5;exitY=1;exitDx=0;exitDy=0;entryX=0;entryY=0.5;entryDx=0;entryDy=0;startArrow=classic;startFill=1;" parent="1" source="SL-odhwJrNfDDm6GMrAu-38" target="SL-odhwJrNfDDm6GMrAu-63" edge="1">
          <mxGeometry width="50" height="50" relative="1" as="geometry">
            <mxPoint x="267" y="440" as="sourcePoint" />
            <mxPoint x="240" y="530" as="targetPoint" />
            <Array as="points">
              <mxPoint x="190" y="580" />
            </Array>
          </mxGeometry>
        </mxCell>
        <mxCell id="SL-odhwJrNfDDm6GMrAu-58" value="" style="group" parent="1" vertex="1" connectable="0">
          <mxGeometry x="372" y="310" width="60" height="160" as="geometry" />
        </mxCell>
        <mxCell id="SL-odhwJrNfDDm6GMrAu-6" value="pkt&lt;sub&gt;n&lt;/sub&gt;" style="rounded=0;whiteSpace=wrap;html=1;container=0;" parent="SL-odhwJrNfDDm6GMrAu-58" vertex="1">
          <mxGeometry x="12" y="40" width="38" height="20" as="geometry" />
        </mxCell>
        <mxCell id="SL-odhwJrNfDDm6GMrAu-8" value="pkt&lt;sub&gt;n+1&lt;/sub&gt;" style="rounded=0;whiteSpace=wrap;html=1;container=0;" parent="SL-odhwJrNfDDm6GMrAu-58" vertex="1">
          <mxGeometry x="12" y="60" width="38" height="20" as="geometry" />
        </mxCell>
        <mxCell id="SL-odhwJrNfDDm6GMrAu-9" value="..." style="rounded=0;whiteSpace=wrap;html=1;container=0;" parent="SL-odhwJrNfDDm6GMrAu-58" vertex="1">
          <mxGeometry x="12" y="80" width="38" height="20" as="geometry" />
        </mxCell>
        <mxCell id="SL-odhwJrNfDDm6GMrAu-10" value="pkt&lt;sub&gt;m&lt;/sub&gt;" style="rounded=0;whiteSpace=wrap;html=1;container=0;" parent="SL-odhwJrNfDDm6GMrAu-58" vertex="1">
          <mxGeometry x="12" y="100" width="38" height="20" as="geometry" />
        </mxCell>
        <mxCell id="SL-odhwJrNfDDm6GMrAu-11" value="pkt&lt;sub&gt;n-1&lt;/sub&gt;" style="rounded=0;whiteSpace=wrap;html=1;container=0;" parent="SL-odhwJrNfDDm6GMrAu-58" vertex="1">
          <mxGeometry x="12" y="20" width="38" height="20" as="geometry" />
        </mxCell>
        <mxCell id="SL-odhwJrNfDDm6GMrAu-12" value="" style="rounded=0;whiteSpace=wrap;html=1;container=0;" parent="SL-odhwJrNfDDm6GMrAu-58" vertex="1">
          <mxGeometry x="12" y="120" width="38" height="20" as="geometry" />
        </mxCell>
        <mxCell id="SL-odhwJrNfDDm6GMrAu-13" value="" style="rounded=0;whiteSpace=wrap;html=1;container=0;" parent="SL-odhwJrNfDDm6GMrAu-58" vertex="1">
          <mxGeometry x="12" width="38" height="20" as="geometry" />
        </mxCell>
        <mxCell id="SL-odhwJrNfDDm6GMrAu-14" value="" style="rounded=0;whiteSpace=wrap;html=1;container=0;" parent="SL-odhwJrNfDDm6GMrAu-58" vertex="1">
          <mxGeometry x="12" y="140" width="38" height="20" as="geometry" />
        </mxCell>
        <mxCell id="SL-odhwJrNfDDm6GMrAu-20" value="" style="shape=link;html=1;rounded=0;" parent="SL-odhwJrNfDDm6GMrAu-58" edge="1">
          <mxGeometry width="100" relative="1" as="geometry">
            <mxPoint y="30" as="sourcePoint" />
            <mxPoint x="60" y="30" as="targetPoint" />
          </mxGeometry>
        </mxCell>
        <mxCell id="SL-odhwJrNfDDm6GMrAu-57" value="" style="shape=link;html=1;rounded=0;" parent="SL-odhwJrNfDDm6GMrAu-58" edge="1">
          <mxGeometry width="100" relative="1" as="geometry">
            <mxPoint y="50" as="sourcePoint" />
            <mxPoint x="60" y="50" as="targetPoint" />
          </mxGeometry>
        </mxCell>
        <mxCell id="SL-odhwJrNfDDm6GMrAu-59" value="" style="curved=1;endArrow=classic;html=1;rounded=0;entryX=0;entryY=0.5;entryDx=0;entryDy=0;startArrow=classic;startFill=1;" parent="1" target="SL-odhwJrNfDDm6GMrAu-64" edge="1">
          <mxGeometry width="50" height="50" relative="1" as="geometry">
            <mxPoint x="330" y="420" as="sourcePoint" />
            <mxPoint x="340" y="500" as="targetPoint" />
            <Array as="points">
              <mxPoint x="290" y="480" />
              <mxPoint x="300" y="580" />
            </Array>
          </mxGeometry>
        </mxCell>
        <mxCell id="SL-odhwJrNfDDm6GMrAu-61" value="服务流程1" style="rounded=0;whiteSpace=wrap;html=1;" parent="1" vertex="1">
          <mxGeometry x="143" y="560" width="66" height="40" as="geometry" />
        </mxCell>
        <mxCell id="SL-odhwJrNfDDm6GMrAu-63" value="服务流程2" style="rounded=0;whiteSpace=wrap;html=1;" parent="1" vertex="1">
          <mxGeometry x="230" y="560" width="66" height="40" as="geometry" />
        </mxCell>
        <mxCell id="SL-odhwJrNfDDm6GMrAu-64" value="服务流程&lt;div&gt;&lt;font style=&quot;font-size: 15px;&quot;&gt;...&lt;/font&gt;&lt;/div&gt;" style="rounded=0;whiteSpace=wrap;html=1;fillColor=none;strokeColor=none;strokeWidth=1;" parent="1" vertex="1">
          <mxGeometry x="320" y="560" width="66" height="40" as="geometry" />
        </mxCell>
        <mxCell id="SL-odhwJrNfDDm6GMrAu-66" value="" style="curved=1;endArrow=classic;html=1;rounded=0;exitX=0.5;exitY=1;exitDx=0;exitDy=0;entryX=0;entryY=0.5;entryDx=0;entryDy=0;" parent="1" source="SL-odhwJrNfDDm6GMrAu-14" target="SL-odhwJrNfDDm6GMrAu-67" edge="1">
          <mxGeometry width="50" height="50" relative="1" as="geometry">
            <mxPoint x="340" y="430" as="sourcePoint" />
            <mxPoint x="530" y="500" as="targetPoint" />
            <Array as="points">
              <mxPoint x="470" y="500" />
            </Array>
          </mxGeometry>
        </mxCell>
        <mxCell id="SL-odhwJrNfDDm6GMrAu-67" value="服务1" style="ellipse;whiteSpace=wrap;html=1;fillColor=none;" parent="1" vertex="1">
          <mxGeometry x="555" y="470" width="60" height="40" as="geometry" />
        </mxCell>
        <mxCell id="SL-odhwJrNfDDm6GMrAu-69" value="服务2&lt;div&gt;error&lt;/div&gt;" style="ellipse;whiteSpace=wrap;html=1;fillColor=none;" parent="1" vertex="1">
          <mxGeometry x="708" y="440" width="60" height="40" as="geometry" />
        </mxCell>
        <mxCell id="SL-odhwJrNfDDm6GMrAu-70" value="服务&lt;div&gt;&lt;b&gt;...&lt;/b&gt;&lt;/div&gt;" style="ellipse;whiteSpace=wrap;html=1;fillColor=none;strokeWidth=0;strokeColor=none;" parent="1" vertex="1">
          <mxGeometry x="700" y="350" width="60" height="40" as="geometry" />
        </mxCell>
        <mxCell id="SL-odhwJrNfDDm6GMrAu-71" value="服务t" style="ellipse;whiteSpace=wrap;html=1;fillColor=none;" parent="1" vertex="1">
          <mxGeometry x="580" y="320" width="60" height="40" as="geometry" />
        </mxCell>
        <mxCell id="SL-odhwJrNfDDm6GMrAu-72" value="" style="curved=1;endArrow=classic;html=1;rounded=0;exitX=0;exitY=0.5;exitDx=0;exitDy=0;" parent="1" source="SL-odhwJrNfDDm6GMrAu-71" edge="1">
          <mxGeometry width="50" height="50" relative="1" as="geometry">
            <mxPoint x="413" y="480" as="sourcePoint" />
            <mxPoint x="430" y="360" as="targetPoint" />
            <Array as="points">
              <mxPoint x="500" y="330" />
            </Array>
          </mxGeometry>
        </mxCell>
        <mxCell id="SL-odhwJrNfDDm6GMrAu-73" value="" style="curved=1;endArrow=classic;html=1;rounded=0;exitX=0.5;exitY=0;exitDx=0;exitDy=0;" parent="1" source="SL-odhwJrNfDDm6GMrAu-13" edge="1">
          <mxGeometry width="50" height="50" relative="1" as="geometry">
            <mxPoint x="590" y="350" as="sourcePoint" />
            <mxPoint x="360" y="230" as="targetPoint" />
            <Array as="points">
              <mxPoint x="410" y="270" />
            </Array>
          </mxGeometry>
        </mxCell>
        <mxCell id="SL-odhwJrNfDDm6GMrAu-74" value="" style="curved=1;endArrow=classic;html=1;rounded=0;exitX=1;exitY=0.5;exitDx=0;exitDy=0;entryX=0;entryY=1;entryDx=0;entryDy=0;" parent="1" source="SL-odhwJrNfDDm6GMrAu-67" target="SL-odhwJrNfDDm6GMrAu-69" edge="1">
          <mxGeometry width="50" height="50" relative="1" as="geometry">
            <mxPoint x="413" y="480" as="sourcePoint" />
            <mxPoint x="565" y="500" as="targetPoint" />
            <Array as="points">
              <mxPoint x="680" y="500" />
            </Array>
          </mxGeometry>
        </mxCell>
        <mxCell id="SL-odhwJrNfDDm6GMrAu-75" value="" style="curved=1;endArrow=classic;html=1;rounded=0;exitX=1;exitY=0;exitDx=0;exitDy=0;entryX=1;entryY=1;entryDx=0;entryDy=0;" parent="1" source="SL-odhwJrNfDDm6GMrAu-69" target="SL-odhwJrNfDDm6GMrAu-70" edge="1">
          <mxGeometry width="50" height="50" relative="1" as="geometry">
            <mxPoint x="625" y="500" as="sourcePoint" />
            <mxPoint x="719" y="484" as="targetPoint" />
            <Array as="points">
              <mxPoint x="780" y="420" />
            </Array>
          </mxGeometry>
        </mxCell>
        <mxCell id="SL-odhwJrNfDDm6GMrAu-76" value="" style="curved=1;endArrow=classic;html=1;rounded=0;exitX=0;exitY=0;exitDx=0;exitDy=0;entryX=1;entryY=0.5;entryDx=0;entryDy=0;" parent="1" source="SL-odhwJrNfDDm6GMrAu-70" target="SL-odhwJrNfDDm6GMrAu-71" edge="1">
          <mxGeometry width="50" height="50" relative="1" as="geometry">
            <mxPoint x="761" y="456" as="sourcePoint" />
            <mxPoint x="761" y="384" as="targetPoint" />
            <Array as="points">
              <mxPoint x="680" y="340" />
            </Array>
          </mxGeometry>
        </mxCell>
        <mxCell id="SL-odhwJrNfDDm6GMrAu-77" value="服务流程A" style="text;html=1;align=center;verticalAlign=middle;resizable=0;points=[];autosize=1;strokeColor=none;fillColor=none;" parent="1" vertex="1">
          <mxGeometry x="505" y="290" width="80" height="30" as="geometry" />
        </mxCell>
        <mxCell id="SL-odhwJrNfDDm6GMrAu-79" value="" style="curved=1;endArrow=classic;html=1;rounded=0;exitX=1;exitY=1;exitDx=0;exitDy=0;fillColor=#dae8fc;strokeColor=#6c8ebf;dashed=1;entryX=1;entryY=0.5;entryDx=0;entryDy=0;" parent="1" source="SL-odhwJrNfDDm6GMrAu-71" target="SL-odhwJrNfDDm6GMrAu-85" edge="1">
          <mxGeometry width="50" height="50" relative="1" as="geometry">
            <mxPoint x="590" y="350" as="sourcePoint" />
            <mxPoint x="620" y="570" as="targetPoint" />
            <Array as="points">
              <mxPoint x="670" y="430" />
            </Array>
          </mxGeometry>
        </mxCell>
        <mxCell id="SL-odhwJrNfDDm6GMrAu-80" value="" style="curved=1;endArrow=classic;html=1;rounded=0;exitX=0;exitY=1;exitDx=0;exitDy=0;fillColor=#dae8fc;strokeColor=#6c8ebf;dashed=1;" parent="1" source="SL-odhwJrNfDDm6GMrAu-70" edge="1">
          <mxGeometry width="50" height="50" relative="1" as="geometry">
            <mxPoint x="641" y="364" as="sourcePoint" />
            <mxPoint x="630" y="590" as="targetPoint" />
            <Array as="points">
              <mxPoint x="700" y="500" />
            </Array>
          </mxGeometry>
        </mxCell>
        <mxCell id="SL-odhwJrNfDDm6GMrAu-81" value="" style="curved=1;endArrow=classic;html=1;rounded=0;exitX=0.5;exitY=1;exitDx=0;exitDy=0;fillColor=#dae8fc;strokeColor=#6c8ebf;dashed=1;entryX=1;entryY=0.5;entryDx=0;entryDy=0;" parent="1" source="SL-odhwJrNfDDm6GMrAu-69" target="SL-odhwJrNfDDm6GMrAu-85" edge="1">
          <mxGeometry width="50" height="50" relative="1" as="geometry">
            <mxPoint x="719" y="394" as="sourcePoint" />
            <mxPoint x="620" y="570" as="targetPoint" />
            <Array as="points">
              <mxPoint x="700" y="550" />
            </Array>
          </mxGeometry>
        </mxCell>
        <mxCell id="SL-odhwJrNfDDm6GMrAu-82" value="" style="curved=1;endArrow=classic;html=1;rounded=0;exitX=1;exitY=1;exitDx=0;exitDy=0;fillColor=#dae8fc;strokeColor=#6c8ebf;dashed=1;entryX=1;entryY=0.5;entryDx=0;entryDy=0;" parent="1" source="SL-odhwJrNfDDm6GMrAu-67" target="SL-odhwJrNfDDm6GMrAu-85" edge="1">
          <mxGeometry width="50" height="50" relative="1" as="geometry">
            <mxPoint x="641" y="364" as="sourcePoint" />
            <mxPoint x="620" y="570" as="targetPoint" />
            <Array as="points">
              <mxPoint x="630" y="520" />
            </Array>
          </mxGeometry>
        </mxCell>
        <mxCell id="SL-odhwJrNfDDm6GMrAu-85" value="服务监控&lt;div&gt;平台&lt;/div&gt;" style="rhombus;whiteSpace=wrap;html=1;" parent="1" vertex="1">
          <mxGeometry x="545" y="560" width="80" height="60" as="geometry" />
        </mxCell>
        <mxCell id="SL-odhwJrNfDDm6GMrAu-88" value="&lt;font style=&quot;font-size: 14px;&quot;&gt;流量恢复系统&lt;/font&gt;" style="whiteSpace=wrap;html=1;fillColor=none;" parent="1" vertex="1">
          <mxGeometry x="310" y="480" width="110" height="30" as="geometry" />
        </mxCell>
        <mxCell id="SL-odhwJrNfDDm6GMrAu-89" value="" style="curved=1;endArrow=classic;html=1;rounded=0;exitX=0.25;exitY=0;exitDx=0;exitDy=0;fillColor=#d5e8d4;strokeColor=#82b366;dashed=1;dashPattern=1 1;" parent="1" source="SL-odhwJrNfDDm6GMrAu-88" edge="1">
          <mxGeometry width="50" height="50" relative="1" as="geometry">
            <mxPoint x="616" y="514" as="sourcePoint" />
            <mxPoint x="380" y="380" as="targetPoint" />
            <Array as="points">
              <mxPoint x="330" y="400" />
            </Array>
          </mxGeometry>
        </mxCell>
        <mxCell id="SL-odhwJrNfDDm6GMrAu-90" value="" style="curved=1;endArrow=classic;html=1;rounded=0;fillColor=#d5e8d4;strokeColor=#82b366;dashed=1;dashPattern=1 1;" parent="1" edge="1">
          <mxGeometry width="50" height="50" relative="1" as="geometry">
            <mxPoint x="380" y="380" as="sourcePoint" />
            <mxPoint x="380" y="450" as="targetPoint" />
            <Array as="points" />
          </mxGeometry>
        </mxCell>
        <mxCell id="SL-odhwJrNfDDm6GMrAu-91" value="" style="curved=1;endArrow=classic;html=1;rounded=0;exitX=0;exitY=0.5;exitDx=0;exitDy=0;fillColor=#f8cecc;strokeColor=#b85450;dashed=1;entryX=0.5;entryY=1;entryDx=0;entryDy=0;" parent="1" source="SL-odhwJrNfDDm6GMrAu-85" target="SL-odhwJrNfDDm6GMrAu-88" edge="1">
          <mxGeometry width="50" height="50" relative="1" as="geometry">
            <mxPoint x="616" y="514" as="sourcePoint" />
            <mxPoint x="635" y="600" as="targetPoint" />
            <Array as="points">
              <mxPoint x="400" y="570" />
            </Array>
          </mxGeometry>
        </mxCell>
        <mxCell id="SL-odhwJrNfDDm6GMrAu-100" value="" style="curved=1;endArrow=classic;html=1;rounded=0;exitX=0.5;exitY=1;exitDx=0;exitDy=0;fillColor=#f8cecc;strokeColor=#b85450;dashed=1;entryX=0;entryY=0.5;entryDx=0;entryDy=0;" parent="1" target="SL-odhwJrNfDDm6GMrAu-101" edge="1">
          <mxGeometry width="50" height="50" relative="1" as="geometry">
            <mxPoint x="585" y="620" as="sourcePoint" />
            <mxPoint x="620" y="570" as="targetPoint" />
            <Array as="points">
              <mxPoint x="630" y="640" />
              <mxPoint x="660" y="590" />
            </Array>
          </mxGeometry>
        </mxCell>
        <mxCell id="SL-odhwJrNfDDm6GMrAu-101" value="&lt;span style=&quot;font-size: 14px;&quot;&gt;可靠性状态存储服务器&lt;/span&gt;" style="whiteSpace=wrap;html=1;fillColor=none;" parent="1" vertex="1">
          <mxGeometry x="690" y="572.5" width="110" height="35" as="geometry" />
        </mxCell>
        <mxCell id="SL-odhwJrNfDDm6GMrAu-102" value="" style="curved=1;endArrow=classic;html=1;rounded=0;exitX=0.5;exitY=0;exitDx=0;exitDy=0;fillColor=#f8cecc;strokeColor=#b85450;dashed=1;entryX=1;entryY=1;entryDx=0;entryDy=0;" parent="1" source="SL-odhwJrNfDDm6GMrAu-101" target="SL-odhwJrNfDDm6GMrAu-69" edge="1">
          <mxGeometry width="50" height="50" relative="1" as="geometry">
            <mxPoint x="555" y="600" as="sourcePoint" />
            <mxPoint x="738" y="480" as="targetPoint" />
            <Array as="points">
              <mxPoint x="780" y="550" />
            </Array>
          </mxGeometry>
        </mxCell>
        <mxCell id="SL-odhwJrNfDDm6GMrAu-105" value="3.重启&amp;amp;状态恢复" style="text;html=1;align=center;verticalAlign=middle;resizable=0;points=[];autosize=1;strokeColor=none;fillColor=none;labelBackgroundColor=none;fontColor=#FF0000;" parent="1" vertex="1">
          <mxGeometry x="715" y="530" width="110" height="30" as="geometry" />
        </mxCell>
        <mxCell id="SL-odhwJrNfDDm6GMrAu-106" value="pkt&lt;sub&gt;m&lt;/sub&gt;" style="text;html=1;align=center;verticalAlign=middle;resizable=0;points=[];autosize=1;strokeColor=none;fillColor=none;" parent="1" vertex="1">
          <mxGeometry x="460" y="468" width="50" height="30" as="geometry" />
        </mxCell>
        <mxCell id="SL-odhwJrNfDDm6GMrAu-107" value="pkt&lt;sub&gt;n&lt;/sub&gt;" style="text;html=1;align=center;verticalAlign=middle;resizable=0;points=[];autosize=1;strokeColor=none;fillColor=none;" parent="1" vertex="1">
          <mxGeometry x="460" y="340" width="50" height="30" as="geometry" />
        </mxCell>
        <mxCell id="SL-odhwJrNfDDm6GMrAu-108" value="&lt;span style=&quot;color: rgb(0, 153, 0);&quot;&gt;5.重发&lt;/span&gt;&lt;div&gt;&lt;span style=&quot;color: rgb(0, 153, 0);&quot;&gt;数据包&lt;/span&gt;&lt;/div&gt;" style="text;html=1;align=center;verticalAlign=middle;resizable=0;points=[];autosize=1;strokeColor=none;fillColor=none;" parent="1" vertex="1">
          <mxGeometry x="332" y="400" width="60" height="40" as="geometry" />
        </mxCell>
        <mxCell id="SL-odhwJrNfDDm6GMrAu-109" value="pkt&lt;sub&gt;n&lt;/sub&gt;" style="text;html=1;align=center;verticalAlign=middle;resizable=0;points=[];autosize=1;strokeColor=none;fillColor=none;" parent="1" vertex="1">
          <mxGeometry x="386" y="230" width="50" height="30" as="geometry" />
        </mxCell>
        <mxCell id="SL-odhwJrNfDDm6GMrAu-112" value="1.服务error&lt;div&gt;监控发现&lt;/div&gt;" style="text;html=1;align=center;verticalAlign=middle;resizable=0;points=[];autosize=1;strokeColor=none;fillColor=none;" parent="1" vertex="1">
          <mxGeometry x="680" y="490" width="80" height="40" as="geometry" />
        </mxCell>
        <mxCell id="SL-odhwJrNfDDm6GMrAu-113" value="2.通知恢复状态" style="text;html=1;align=center;verticalAlign=middle;resizable=0;points=[];autosize=1;strokeColor=none;fillColor=none;labelBackgroundColor=none;fontColor=#FF0000;" parent="1" vertex="1">
          <mxGeometry x="590" y="600" width="110" height="30" as="geometry" />
        </mxCell>
        <mxCell id="SL-odhwJrNfDDm6GMrAu-115" value="4.通知恢复流量" style="text;html=1;align=center;verticalAlign=middle;resizable=0;points=[];autosize=1;strokeColor=none;fillColor=none;labelBackgroundColor=none;fontColor=#FF0000;" parent="1" vertex="1">
          <mxGeometry x="430" y="565" width="110" height="30" as="geometry" />
        </mxCell>
      </root>
    </mxGraphModel>
  </diagram>
</mxfile>
